<svg xmlns="http://www.w3.org/2000/svg" viewBox="0 0 32 32" shape-rendering="crispEdges">
  <rect width="32" height="32" fill="#7b3515"/>
  <rect x="2" y="2" width="28" height="28" fill="#b75d20"/>
  <rect x="4" y="4" width="24" height="24" fill="#d48634"/>
  <rect x="7" y="6" width="18" height="1" fill="#f0b866" opacity=".7"/>
  <rect x="5" y="22" width="22" height="2" fill="#9a461b" opacity=".55"/>

  <rect x="9" y="14" width="13" height="6" fill="#5b2b19"/>
  <rect x="11" y="11" width="8" height="5" fill="#6b3420"/>
  <rect x="8" y="10" width="4" height="4" fill="#6b3420"/>
  <rect x="19" y="10" width="3" height="4" fill="#6b3420"/>

  <rect x="12" y="13" width="2" height="2" fill="#1d120d"/>
  <rect x="18" y="13" width="2" height="2" fill="#1d120d"/>
  <rect x="15" y="16" width="2" height="1" fill="#16100c"/>
  <rect x="14" y="18" width="4" height="1" fill="#2b1710"/>

  <rect x="6" y="16" width="3" height="2" fill="#4a2316"/>
  <rect x="22" y="17" width="5" height="2" fill="#4a2316"/>
  <rect x="26" y="18" width="2" height="2" fill="#3a1d13"/>

  <rect x="10" y="20" width="2" height="4" fill="#3b1d13"/>
  <rect x="18" y="20" width="2" height="4" fill="#3b1d13"/>
  <rect x="8" y="24" width="4" height="1" fill="#2a160f"/>
  <rect x="18" y="24" width="4" height="1" fill="#2a160f"/>

  <rect x="10" y="12" width="1" height="1" fill="#df9560"/>
  <rect x="20" y="12" width="1" height="1" fill="#df9560"/>
  <rect x="13" y="15" width="1" height="1" fill="#a85a33"/>
  <rect x="17" y="15" width="1" height="1" fill="#a85a33"/>

  <rect x="5" y="7" width="2" height="1" fill="#f1c37a" opacity=".75"/>
  <rect x="24" y="8" width="3" height="1" fill="#f1c37a" opacity=".65"/>
  <rect x="3" y="25" width="4" height="1" fill="#eba24d" opacity=".65"/>
  <rect x="23" y="24" width="6" height="1" fill="#eba24d" opacity=".58"/>
</svg>
